<?xml version="1.0" encoding="UTF-8" standalone="no"?>
<svg viewBox="0 0 50 50"
 xmlns="http://www.w3.org/2000/svg" xmlns:xlink="http://www.w3.org/1999/xlink"  version="1.2" baseProfile="tiny">
<title>Qt SVG Document</title>
<desc>Generated with Qt</desc>
<defs>
</defs>
<g fill="none" stroke="black" stroke-width="1" fill-rule="evenodd" stroke-linecap="square" stroke-linejoin="bevel" >

<g fill="#5657f5" fill-opacity="1" stroke="none" transform="matrix(3.12012,0,0,3.125,-4037.44,-771.875)"
font-family="Noto Sans" font-size="10" font-weight="400" font-style="normal" 
opacity="0.905293" >
<circle cx="1302" cy="255" r="8"/>
</g>

<g fill="#ffffff" fill-opacity="1" stroke="none" transform="matrix(3.12012,0,0,3.125,-270.203,486.375)"
font-family="Noto Sans" font-size="10" font-weight="400" font-style="normal" 
>
<path vector-effect="none" fill-rule="nonzero" d="M91.626,-150.64 L92.376,-150.64 C92.384,-150.64 92.3916,-150.64 92.3994,-150.64 C92.5906,-150.632 92.7818,-150.544 92.915,-150.406 L94.6259,-148.695 L96.3603,-150.406 C96.5595,-150.578 96.6953,-150.635 96.8759,-150.64 L97.6259,-150.64 L97.6259,-149.89 C97.6259,-149.675 97.6002,-149.477 97.4384,-149.327 L95.7275,-147.617 L97.415,-145.929 C97.5562,-145.788 97.626,-145.589 97.626,-145.39 L97.626,-144.64 L96.876,-144.64 C96.677,-144.64 96.478,-144.71 96.3369,-144.851 L94.626,-146.562 L92.9151,-144.851 C92.774,-144.71 92.575,-144.64 92.3761,-144.64 L91.6261,-144.64 L91.6261,-145.39 C91.6261,-145.589 91.6959,-145.788 91.837,-145.929 L93.5479,-147.617 L91.837,-149.327 C91.6789,-149.473 91.6096,-149.679 91.6261,-149.89 L91.6261,-150.64 L91.626,-150.64"/>
</g>

<g fill="none" stroke="none" transform="matrix(3.12012,0,0,3.125,-270.203,486.375)"
font-family="Noto Sans" font-size="10" font-weight="400" font-style="normal" 
>
<rect x="86.625" y="-155.64" width="16" height="16"/>
</g>

<g fill="none" stroke="#000000" stroke-opacity="1" stroke-width="1" stroke-linecap="square" stroke-linejoin="bevel" transform="matrix(1,0,0,1,0,0)"
font-family="Noto Sans" font-size="10" font-weight="400" font-style="normal" 
>
</g>
</g>
</svg>
