<?xml version="1.0" encoding="UTF-8" standalone="no"?>
<svg viewBox="0 0 50 50"
 xmlns="http://www.w3.org/2000/svg" xmlns:xlink="http://www.w3.org/1999/xlink"  version="1.2" baseProfile="tiny">
<title>Qt SVG Document</title>
<desc>Generated with Qt</desc>
<defs>
</defs>
<g fill="none" stroke="black" stroke-width="1" fill-rule="evenodd" stroke-linecap="square" stroke-linejoin="bevel" >

<g fill="#b2b2b2" fill-opacity="1" stroke="none" transform="matrix(3.12498,0,0,3.125,-4043.73,-771.874)"
font-family="Noto Sans" font-size="10" font-weight="400" font-style="normal" 
opacity="0.48419" >
<ellipse cx="1302" cy="255" rx="7.99999" ry="7.99999"/>
</g>

<g fill="#ffffff" fill-opacity="1" stroke="none" transform="matrix(3.12498,0,0,3.125,-253.124,-3021.87)"
font-family="Noto Sans" font-size="10" font-weight="400" font-style="normal" 
opacity="0.75" >
<path vector-effect="none" fill-rule="evenodd" d="M87.7997,972 L91.1814,972 C91.6317,972 91.9977,972.368 92.0002,972.819 L92.0002,976.201 L87.7997,972 M90.2071,978.007 L86.812,978.007 C86.3617,978.007 85.9933,977.639 85.9933,977.188 L85.9933,973.793 L90.2071,978.007"/>
</g>

<g fill="none" stroke="none" transform="matrix(3.12498,0,0,3.125,-1603.12,580.118)"
font-family="Noto Sans" font-size="10" font-weight="400" font-style="normal" 
>
<rect x="513" y="-185.638" width="16" height="16"/>
</g>

<g fill="none" stroke="#000000" stroke-opacity="1" stroke-width="1" stroke-linecap="square" stroke-linejoin="bevel" transform="matrix(1,0,0,1,0,0)"
font-family="Noto Sans" font-size="10" font-weight="400" font-style="normal" 
>
</g>
</g>
</svg>
